# xmcd
#
# Track frame offsets: 
#        150
#        16591
#        32727
#        52052
#        67686
#        84913
#        117410
#        142178
#        164699
#        179973
#
# Disc length: 2761 seconds
#
# Revision: 0
# Processed by: cddbd v1.5.2PL0 Copyright (c) Steve Scherf et al.
# Submitted via: ExactAudioCopy v1.0b4
#
DISCID=890ac70a
DTITLE=Papermoon Gypsys - Papermoon Gypsys
DYEAR=2015
DGENRE=Blues
TTITLE0=When I Look Into Your Eyes
TTITLE1=Love Medication
TTITLE2=It's Complicated
TTITLE3=She's Tough
TTITLE4=Little Town
TTITLE5=Halls Of Chandrian
TTITLE6=Down In Paradise
TTITLE7=Have You Ever Had
TTITLE8=You Better Move On
TTITLE9=Lonely Nights
EXTD=
EXTT0=
EXTT1=
EXTT2=
EXTT3=
EXTT4=
EXTT5=
EXTT6=
EXTT7=
EXTT8=
EXTT9=
PLAYORDER=
